<svg width="107" height="130" viewBox="0 0 107 130" fill="none" xmlns="http://www.w3.org/2000/svg">
<g clip-path="url(#clip0_29_7)">
<path d="M88.488 69.502C88.668 88.872 105.481 95.319 105.668 95.402C105.525 95.856 102.981 104.587 96.81 113.606C91.475 121.404 85.938 129.172 77.216 129.333C68.644 129.493 65.888 124.251 56.09 124.251C46.294 124.251 43.232 129.175 35.12 129.495C26.7 129.813 20.29 121.063 14.91 113.295C3.916 97.398 -4.484 68.384 6.796 48.8C12.4 39.073 22.412 32.915 33.28 32.757C41.548 32.599 49.35 38.319 54.407 38.319C59.457 38.319 68.94 31.439 78.91 32.449C83.084 32.622 94.8 34.134 102.32 45.145C101.715 45.52 88.343 53.305 88.488 69.499M72.38 21.938C76.85 16.528 79.86 8.994 79.04 1.5C72.596 1.76 64.804 5.794 60.183 11.2C56.041 15.99 52.413 23.654 53.393 31C60.573 31.556 67.911 27.351 72.38 21.938Z" fill="black"/>
</g>
<defs>
<clipPath id="clip0_29_7">
<rect width="106" height="129" fill="white" transform="translate(0.5 0.5)"/>
</clipPath>
</defs>
</svg>
